inDegrees=no
num_controls=7
num_derivatives=13
num_iterations=107
num_multipliers=7
num_parameters=0
num_slacks=7
num_states=26
objective=5.108570
objective_accelerations=0.641781
objective_balance=0.012698
objective_effort=0.163787
objective_height=4.239770
objective_ligament=0.050534
solver_duration=1182.216559
status=Solve_Succeeded
success=true
DataType=double
version=3
OpenSimVersion=4.4-2022-07-23-0e9fedc
endheader
time	/jointset/ground_pelvis/pelvis_tilt/value	/jointset/ground_pelvis/pelvis_tx/value	/jointset/ground_pelvis/pelvis_ty/value	/jointset/hip_l/hip_flexion_l/value	/jointset/hip_l/hip_adduction_l/value	/jointset/hip_l/hip_rotation_l/value	/jointset/back/lumbar_extension/value	/jointset/patellofemoral_l/patellar_flexion_l/value	/jointset/knee_l/knee_flexion_l/value	/jointset/knee_l/knee_adduction_l/value	/jointset/knee_l/knee_rotation_l/value	/jointset/ankle_l/ankle_angle_l/value	/jointset/subtalar_l/subtalar_angle_l/value	/jointset/ground_pelvis/pelvis_tilt/speed	/jointset/ground_pelvis/pelvis_tx/speed	/jointset/ground_pelvis/pelvis_ty/speed	/jointset/hip_l/hip_flexion_l/speed	/jointset/hip_l/hip_adduction_l/speed	/jointset/hip_l/hip_rotation_l/speed	/jointset/back/lumbar_extension/speed	/jointset/patellofemoral_l/patellar_flexion_l/speed	/jointset/knee_l/knee_flexion_l/speed	/jointset/knee_l/knee_adduction_l/speed	/jointset/knee_l/knee_rotation_l/speed	/jointset/ankle_l/ankle_angle_l/speed	/jointset/subtalar_l/subtalar_angle_l/speed	/forceset/tau_hip_flexion_l	/forceset/tau_hip_adduction_l	/forceset/tau_hip_rotation_l	/forceset/tau_knee_flexion_l	/forceset/tau_ankle_angle_l	/forceset/tau_subtalar_angle_l	/forceset/tau_lumbar_extension	lambda_cid13_p0	lambda_cid13_p1	lambda_cid13_p2	lambda_cid13_p3	lambda_cid13_p4	lambda_cid13_p5	lambda_cid14_p0	/jointset/ground_pelvis/pelvis_tilt/accel	/jointset/ground_pelvis/pelvis_tx/accel	/jointset/ground_pelvis/pelvis_ty/accel	/jointset/hip_l/hip_flexion_l/accel	/jointset/hip_l/hip_adduction_l/accel	/jointset/hip_l/hip_rotation_l/accel	/jointset/back/lumbar_extension/accel	/jointset/patellofemoral_l/patellar_flexion_l/accel	/jointset/knee_l/knee_flexion_l/accel	/jointset/knee_l/knee_adduction_l/accel	/jointset/knee_l/knee_rotation_l/accel	/jointset/ankle_l/ankle_angle_l/accel	/jointset/subtalar_l/subtalar_angle_l/accel	gamma_cid13_p0	gamma_cid13_p1	gamma_cid13_p2	gamma_cid13_p3	gamma_cid13_p4	gamma_cid13_p5	gamma_cid14_p0
0.5	-0.1751099263051505	0.03772265373480826	0.7843792501859875	0.9119827294356831	-0.365839231626232	-0.0103045022910588	-0.3978078233366751	0.9231095876586823	0.9231095876585758	-0.04349198983151707	-0.1745289975412374	0.3114118266292532	0.1593131245404572	-0.6415948423408854	-0.157491740422116	-0.4741034020540538	2.177898078979566	0.03532471419240216	0.5181591397101306	-0.3156441743374285	1.907959590213258	1.907959590213667	0.2975962903530728	0.0003208792253714397	0.5319155244166748	0.2671969662813132	-0.08551434384178641	0.0204439173309042	0.0008153718667375884	-0.2113345720875087	0.01053106284656095	0.01868409321403549	0.1056535228641155	-20.70170162373154	-3.574562738406451	-0.7565296251373155	-1.711054586621821	-441.7093948341982	-72.68915698335165	-6.15669515141764	0.1797689588792174	0.3811862887723666	-0.4329146193722495	-1.070593949870822	0.08505458880160337	-0.7284792434076985	1.342572988453016	-1.488966220270543	-1.48896622027057	-0.223740196177147	0.02185801074550781	-0.7576436429194628	0.1108732123616219	-4.144771887372775e-07	-8.998712950045814e-07	5.41133415920925e-06	2.143876985356018e-07	-1.158463942739135e-06	-1.767782429765723e-06	-7.105153555322148e-07
0.51	-0.1815151112352369	0.03616712297527265	0.779617775551436	0.9337034900519998	-0.3654842540926895	-0.005154790709154068	-0.4008978016768742	0.9421110780607802	0.9421110780608238	-0.04053566776983514	-0.1745250427621	0.3166915276130561	0.1619863834119588	-0.6393566350296098	-0.1535888783638331	-0.4780801590095977	2.165947550419891	0.03566274794098456	0.5117282270995807	-0.3023177160466562	1.892061496528456	1.892061496528459	0.2936583482144605	0.0004458945877181738	0.523956368533156	0.2674050456952806	-0.08950598863865653	0.02179719830157159	0.0001827342801229266	-0.2138971145167395	0.009539119400468572	0.01910093744358335	0.1088045499094157	-21.1583870813838	-3.557089588406209	-0.8947250356382666	-1.714848695491638	-444.702009580031	-72.63716712694043	-5.48050516500692	0.2586487142591751	0.3987149978506243	-0.3635783528995813	-1.303302693676803	0.006175884250749121	-0.6093214870957565	1.332748897748899	-1.681641827843762	-1.681641827904686	-0.4802906225475684	0.005190154312997042	-0.8253292533201947	-0.03222920662691949	-3.964045548757912e-07	-5.426568185463138e-07	5.402398456407607e-06	2.580053080460748e-07	-1.117068922630682e-06	-1.438951501571016e-06	-6.853183017987192e-07
0.52	-0.1878953536728212	0.03465139660301812	0.774819828923478	0.9552955413057601	-0.3651262965983872	-7.117309679726454e-05	-0.4038535021044998	0.960945305349011	0.960945305349143	-0.03761901900964197	-0.1745203644582949	0.3218895814995725	0.1646601221750923	-0.6366063438380171	-0.1495308629659005	-0.4813978007353842	2.152156206473769	0.03592070634411239	0.5049403458003302	-0.288788591821482	1.874506967433305	1.874506967432902	0.2896616300820798	0.0004655841633630823	0.5155861049595515	0.2672929446075777	-0.09349763343571978	0.02315047927225516	-0.0004499033073085063	-0.2164596569459914	0.008547175954400412	0.01951778167317818	0.1119555769545342	-21.61014679888308	-3.547848811846733	-1.023187081091553	-1.763061289312861	-447.626139074954	-72.68793089861606	-4.850002836888476	0.2821857349426311	0.4122169567023929	-0.3010915734208174	-1.438757027159957	0.0690395197101222	-0.7998729811486377	1.383106175333416	-1.82025330234021	-1.820253302340227	-0.2354953949311368	0.0007928534037387721	-0.8398651809365425	0.04683711202689042	-3.831178231967134e-07	-3.14452727215794e-07	5.407260286080524e-06	2.856442300921054e-07	-1.080880026308361e-06	-1.177382317313152e-06	-6.741771826832446e-07
0.53	-0.1942456404112049	0.03317692144336495	0.7699920315135539	0.9767408080959531	-0.3647660127169733	0.004943438360975975	-0.4066729373526263	0.9795959363350638	0.9795959363350627	-0.03474288057070327	-0.1745156667206619	0.3270019374022045	0.1673312560729678	-0.6333668234298843	-0.1453484182608129	-0.4840459881172052	2.136602083703139	0.03613193563503678	0.4979353315912229	-0.27507794844877	1.855350968231867	1.855350968231869	0.2855576687581896	0.0004593618013145482	0.506816241857558	0.2668847995979617	-0.09759093312121958	0.02395598018837361	-0.0009670051630130019	-0.2189832857974398	0.007058271579471905	0.02010709773088792	0.1151339584503861	-22.22030375688133	-3.621870730612065	-1.097151261006261	-1.611307118106031	-450.7166913326852	-72.99816206748905	-4.264746896528898	0.3574423294934359	0.4236808655475541	-0.2295407252085808	-1.658041732043165	-0.004281363188296291	-0.658453476626201	1.368119821466195	-2.003378795477956	-2.003378795417137	-0.4990755641618425	-0.002503783508949611	-0.9058860259696108	-0.09261019496166915	-3.63748547209806e-07	-3.635629931581452e-08	5.346156283904803e-06	3.160941315960218e-07	-1.032140878182115e-06	-8.734240830878424e-07	-6.509720201890074e-07
0.54	-0.2005610105183614	0.03174475525838908	0.7651411805488825	0.9980216732924126	-0.3644039057420415	0.009886472109483299	-0.4093546508863844	0.9980469862158213	0.9980469862156954	-0.031908027557574	-0.1745112660070685	0.3320245268435884	0.1699967145432464	-0.6296230175919437	-0.1410690680304419	-0.4860085116848747	2.119275887731358	0.03628532504707997	0.4906248039487224	-0.2612442489469947	1.834590746373141	1.834590746373549	0.2814045449125421	0.000406179339242122	0.4976328127100133	0.2661578590880975	-0.1016842328069115	0.02476148110444651	-0.001484107018521429	-0.2215069146489103	0.005569367204548353	0.0206964137885332	0.1183123399460624	-22.82558188139668	-3.705186819036616	-1.159990613207551	-1.502544847473663	-453.7486106705681	-73.41221881456593	-3.723975517304626	0.3830428209040904	0.4315980617591477	-0.1639588105905612	-1.793171667389808	0.05747154393339416	-0.8609756678280267	1.407717401146052	-2.141097833797694	-2.141097833797621	-0.2453278992828523	-0.008599166602383038	-0.9225783900467364	-0.01692198802345107	-3.376496477333846e-07	2.969401605333551e-07	5.212068808194419e-06	3.496540529256842e-07	-9.69516345081311e-07	-5.22567325494295e-07	-6.144194054459262e-07
0.55	-0.2068366063071015	0.03035583281123028	0.7602741380272675	1.019120782282416	-0.3640402631960813	0.01475541677817046	-0.4118973841414222	1.016282747080584	1.016282747080639	-0.02911487373083297	-0.1745071103100797	0.3369534529530478	0.172653719860627	-0.6254155656114241	-0.1367020849778894	-0.487281671953145	2.100256736445411	0.03643651854380784	0.483121117073541	-0.2472948584687324	1.81230725620034	1.812307256200409	0.27721181715657	0.0004088630345769898	0.4880948927410387	0.2651919217505408	-0.105678155410962	0.02568243592102074	-0.001881449074436749	-0.2243089410125567	0.004404814490507159	0.02090210984950383	0.1213930598993722	-23.37186433943403	-3.584516566956596	-1.309849776237191	-1.391114553290812	-456.8814346403823	-73.47272357546595	-3.226584988489968	0.4516698534133727	0.4413224825076249	-0.091433603830778	-1.999696184191033	-0.007881240789732206	-0.7020751700744794	1.389681409926566	-2.309981269399441	-2.309981269450491	-0.5083172122691876	0.003281962394917006	-0.9780113520258223	-0.1448111018603599	-3.1317159139713e-07	5.667218316085455e-07	5.069082869583097e-06	3.741869945100681e-07	-9.079651318381455e-07	-2.111766764331829e-07	-5.823359672498098e-07
